<svg width="96" height="88" viewBox="0 0 96 88" fill="none" xmlns="http://www.w3.org/2000/svg">
<path d="M13.0675 12.5951V0.0957031H21.3259V12.5951H33.7118V20.928H21.3259V33.4256H13.0675V20.928H0.679871V12.5951H13.0675ZM25.4551 37.5938V25.0945H37.8427V12.5951H66.7471L74.3036 20.928H87.3931C89.5815 20.9344 91.6784 21.8143 93.2259 23.3757C94.7733 24.937 95.6455 27.0528 95.652 29.2609V79.2584C95.6455 81.4665 94.7734 83.5822 93.226 85.1436C91.6787 86.7049 89.5818 87.5849 87.3935 87.5914H21.3259C19.1376 87.5849 17.0408 86.7049 15.4934 85.1436C13.946 83.5822 13.0739 81.4665 13.0675 79.2584V37.5938H25.4551ZM54.3595 75.092C58.4428 75.0916 62.4343 73.8695 65.8293 71.5803C69.2243 69.291 71.8703 66.0373 73.4327 62.2306C74.9951 58.424 75.4037 54.2354 74.6069 50.1944C73.81 46.1535 71.8435 42.4417 68.9561 39.5284C66.0686 36.6151 62.3898 34.6312 58.385 33.8275C54.3801 33.0239 50.2289 33.4365 46.4565 35.0133C42.684 36.5901 39.4596 39.2602 37.1911 42.6861C34.9226 46.1119 33.7118 50.1395 33.7118 54.2597C33.7137 59.7844 35.8898 65.0823 39.7616 68.9888C43.6334 72.8952 48.8841 75.0905 54.3595 75.092ZM41.1459 54.2597C41.1459 56.8967 41.9208 59.4744 43.3728 61.667C44.8247 63.8596 46.8884 65.5685 49.3029 66.5776C51.7173 67.5868 54.3742 67.8508 56.9373 67.3363C59.5005 66.8219 61.855 65.5521 63.7029 63.6874C65.5509 61.8228 66.8094 59.4471 67.3192 56.8608C67.8291 54.2745 67.5674 51.5937 66.5673 49.1574C65.5672 46.7212 63.8736 44.6389 61.7006 43.1738C59.5276 41.7088 56.9729 40.9268 54.3595 40.9268C52.6237 40.9249 50.9046 41.2685 49.3006 41.9379C47.6966 42.6072 46.2392 43.5892 45.0119 44.8277C43.7845 46.0661 42.8112 47.5367 42.1479 49.1552C41.4845 50.7736 41.144 52.5083 41.1459 54.2597Z" fill="#848484"/>
</svg>
